<?xml version="1.0" standalone="no"?>
<!DOCTYPE svg PUBLIC "-//W3C//DTD SVG 20010904//EN"
 "http://www.w3.org/TR/2001/REC-SVG-20010904/DTD/svg10.dtd">
<svg version="1.0" xmlns="http://www.w3.org/2000/svg"
 width="200.000000pt" height="200.000000pt" viewBox="0 0 200.000000 200.000000"
 preserveAspectRatio="xMidYMid meet">

<g transform="translate(0.000000,200.000000) scale(0.100000,-0.100000)"
fill="#000000" stroke="none">
<path d="M755 1610 c-16 -4 -40 -12 -51 -18 -35 -18 -84 -81 -84 -106 0 -33
27 -41 48 -14 61 78 103 100 148 79 33 -15 46 -55 42 -127 l-4 -61 33 26 c28
22 33 32 33 69 0 105 -72 172 -165 152z"/>
<path d="M997 1437 c-171 -53 -483 -487 -405 -565 19 -19 35 -14 79 25 55 50
112 136 164 247 49 104 62 142 47 132 -27 -16 -133 -171 -173 -252 -24 -49
-45 -91 -46 -93 -2 -2 -6 -1 -10 2 -11 12 76 174 138 257 94 125 207 212 253
194 20 -8 30 -45 21 -75 -7 -20 -5 -20 29 7 20 16 36 37 36 46 0 30 -22 67
-44 74 -43 12 -52 12 -89 1z"/>
<path d="M1165 1351 c-104 -59 -254 -248 -306 -383 -27 -73 -21 -108 20 -108
50 0 128 106 191 261 17 39 28 74 26 76 -7 8 -106 -139 -143 -212 -40 -79 -41
-80 -49 -73 -8 9 41 102 101 193 89 134 178 215 238 215 22 0 27 -4 27 -25 0
-35 -18 -68 -80 -145 -59 -73 -100 -151 -100 -193 0 -44 40 -77 92 -77 44 0
71 13 121 58 51 48 20 82 -36 40 -48 -37 -74 -49 -91 -42 -39 15 -7 92 78 193
80 95 107 190 66 231 -30 30 -94 26 -155 -9z"/>
<path d="M1065 736 c-102 -45 -113 -181 -20 -242 33 -22 94 -21 132 1 92 54
82 199 -17 239 -48 19 -56 19 -95 2z m99 -29 c46 -46 42 -168 -7 -202 -41 -29
-90 -18 -112 26 -29 55 -12 177 27 192 31 13 70 6 92 -16z"/>
<path d="M110 733 c26 -10 30 -26 30 -131 0 -97 -1 -103 -22 -112 -18 -7 -13
-9 27 -9 28 1 43 3 35 6 -8 3 -18 11 -22 17 -10 15 -10 189 0 183 4 -3 27 -50
52 -106 25 -55 47 -101 50 -101 3 0 25 46 49 101 25 55 48 102 52 104 8 6 12
-137 3 -169 -3 -14 -13 -27 -22 -29 -10 -3 10 -5 43 -5 33 0 52 2 43 5 -16 4
-18 19 -18 123 0 104 2 119 18 123 9 3 -1 5 -23 6 l-41 1 -46 -97 -45 -98 -47
98 -46 97 -43 -1 c-23 0 -35 -3 -27 -6z"/>
<path d="M493 729 c14 -9 17 -26 17 -119 0 -93 -3 -110 -17 -119 -13 -8 4 -10
67 -11 99 0 142 17 177 69 28 41 29 75 5 120 -29 54 -72 71 -177 71 -66 -1
-85 -3 -72 -11z m152 -13 c94 -39 83 -190 -15 -216 -75 -20 -80 -14 -80 110 0
77 4 110 13 113 22 10 47 7 82 -7z"/>
<path d="M811 713 c-12 -14 -19 -28 -16 -31 3 -3 11 2 18 11 12 15 28 21 54
18 7 0 20 -12 29 -26 22 -34 6 -77 -56 -144 -28 -30 -50 -56 -50 -58 0 -2 33
-3 74 -3 63 0 74 3 78 18 5 16 -1 18 -56 14 l-61 -4 32 33 c46 50 83 109 83
134 0 61 -90 88 -129 38z"/>
<path d="M1290 727 c23 -12 25 -18 28 -102 3 -105 -2 -132 -26 -138 -9 -3 6
-5 33 -5 28 0 43 2 35 5 -8 3 -18 11 -22 17 -10 15 -10 176 0 175 4 0 45 -45
92 -99 47 -55 88 -99 93 -100 4 0 7 56 7 124 0 110 2 125 18 129 9 3 -3 5 -27
6 -39 1 -42 -1 -27 -12 14 -10 16 -26 14 -94 l-3 -82 -83 95 c-77 87 -85 94
-120 94 -36 0 -37 -1 -12 -13z"/>
<path d="M1603 733 c15 -4 17 -18 17 -118 0 -98 -2 -115 -17 -124 -13 -8 12
-10 90 -11 59 0 107 3 107 8 0 4 3 18 6 32 l6 25 -17 -23 c-15 -20 -24 -23
-73 -20 l-57 3 -3 53 -3 52 45 0 c32 0 48 -5 55 -17 8 -15 10 -11 11 20 0 35
-1 37 -16 22 -11 -10 -29 -15 -53 -13 l-36 3 0 50 0 50 47 3 c37 2 50 -1 66
-18 l19 -21 -4 26 c-5 25 -6 25 -107 24 -55 -1 -93 -3 -83 -6z"/>
</g>
</svg>
